<svg version="1.1" id="Layer_1" xmlns="http://www.w3.org/2000/svg" x="0" y="0" viewBox="0 0 278.9 278.9" style="enable-background:new 0 0 278.9 278.9" xml:space="preserve"><style>.st0{fill:#feaa02}.st1{fill:#19a375}.st2{fill:#f5f5f5}.st3{fill:#fca902}</style><path class="st0" d="M135 122.5c0 .8-.1 1.1-1 .8-4.2-1.4-8.3-3.1-11.8-5.8-4.2-3.2-6.7-7.4-7.6-12.6-1-5.3-.5-10.4 2-15.1 3.5-6.5 9-10.3 16.1-11.9 2.2-.5 2.2-.5 2.2 1.8v20.8c.1 7.3.1 14.7.1 22zM166.8 161.3c.9 5.9.5 11.6-2.2 17-3.9 7.9-10.3 12.7-19.1 14.1-.9.1-.7-.4-.7-.8v-48.8c0-.9.2-1 1-.7 3.8 1.3 7.4 2.8 10.9 4.7 5.8 3.3 9.1 8.1 10.1 14.5z"/><path class="st0" d="M139.5 14.6c-68.9 0-124.9 56-124.8 124.9.1 69 55.9 124.8 124.8 124.8s124.8-55.9 124.8-124.8c0-69-55.8-124.8-124.8-124.9zm44.8 152c-.3 10.6-3.7 20-11.1 27.7-6.3 6.5-14 10.3-22.9 11.7-1.5.2-3.1.4-4.7.5-.7 0-.8.3-.8.9v14.8c0 1.2 0 1.2-1.2 1.2h-7.7c-.7 0-1-.2-.9-.9 0-4.8 0-9.7.1-14.5 0-1-.3-1.3-1.3-1.4-5.1-.7-10-1.8-14.8-3.5-9.9-3.6-16.3-10.9-20.5-20.2-2.3-5-3.3-10.3-3.8-15.7-.1-.7.1-1 .8-1.1 5-.9 10-1.8 14.9-2.8.9-.2 1 .1 1.2.9.8 5.3 1.9 10.5 4.5 15.2 4 7.1 9.8 11.9 18.1 13.3.8.1.9-.1.9-.8v-51c0-.8-.2-1.1-1-1.2-7.8-1.6-15.1-4.6-21.9-8.9-6.7-4.2-11.1-10.3-13.2-17.9-2.6-9.1-2.2-18.3 1.6-27 4-9.3 10.8-15.8 20.5-19.1 4.3-1.5 8.6-2.3 13.1-2.8.7-.1.9-.3.9-1v-6.4c0-.6.2-.8.7-.7h8.4c.6 0 .8.2.8.8V63c0 .8.3.9.9 1 6.3.7 12.3 2.2 17.8 5.4 8 4.8 13.2 11.8 15.9 20.7.6 2.1 1.1 4.2 1.5 6.3.1.6 0 .9-.7 1-5.2.8-10.4 1.5-15.7 2.3-.6.1-.8-.1-.9-.7-.6-3.4-1.5-6.7-3-9.8-2.9-5.8-7.7-9.2-13.9-10.9-1.9-.5-1.9-.5-1.9 1.5v45c0 .8.3 1.1 1 1.3 5 1.3 10.1 2.4 14.8 4.3 8.3 3.4 15.1 8.5 19.3 16.6 3.2 6.1 4.4 12.7 4.2 19.6z"/><path class="st1" d="M140.3 1.4C63.6 1.1 1.3 63.3 1.4 139.7c0 76.1 61.5 137.7 137.3 138.2 76.7.5 138.8-61.4 139.2-137.4.5-76.7-61.5-138.7-137.6-139.1zm-.7 270C67 271.4 7.9 212.3 7.9 139.6c0-72.7 59.2-131.7 132-131.7 72.6 0 131.6 59.2 131.6 132-.1 72.5-59.3 131.5-131.9 131.5z"/><path class="st2" d="M135 122.5c0 .8-.1 1.1-1 .8-4.2-1.4-8.3-3.1-11.8-5.8-4.2-3.2-6.7-7.4-7.6-12.6-1-5.3-.5-10.4 2-15.1 3.5-6.5 9-10.3 16.1-11.9 2.2-.5 2.2-.5 2.2 1.8v20.8c.1 7.3.1 14.7.1 22zM166.8 161.3c.9 5.9.5 11.6-2.2 17-3.9 7.9-10.3 12.7-19.1 14.1-.9.1-.7-.4-.7-.8v-48.8c0-.9.2-1 1-.7 3.8 1.3 7.4 2.8 10.9 4.7 5.8 3.3 9.1 8.1 10.1 14.5z"/><path class="st2" d="M139.5 14.6c-68.9 0-124.9 56-124.8 124.9.1 69 55.9 124.8 124.8 124.8s124.8-55.9 124.8-124.8c0-69-55.8-124.8-124.8-124.9zm44.8 152c-.3 10.6-3.7 20-11.1 27.7-6.3 6.5-14 10.3-22.9 11.7-1.5.2-3.1.4-4.7.5-.7 0-.8.3-.8.9v14.8c0 1.2 0 1.2-1.2 1.2h-7.7c-.7 0-1-.2-.9-.9 0-4.8 0-9.7.1-14.5 0-1-.3-1.3-1.3-1.4-5.1-.7-10-1.8-14.8-3.5-9.9-3.6-16.3-10.9-20.5-20.2-2.3-5-3.3-10.3-3.8-15.7-.1-.7.1-1 .8-1.1 5-.9 10-1.8 14.9-2.8.9-.2 1 .1 1.2.9.8 5.3 1.9 10.5 4.5 15.2 4 7.1 9.8 11.9 18.1 13.3.8.1.9-.1.9-.8v-51c0-.8-.2-1.1-1-1.2-7.8-1.6-15.1-4.6-21.9-8.9-6.7-4.2-11.1-10.3-13.2-17.9-2.6-9.1-2.2-18.3 1.6-27 4-9.3 10.8-15.8 20.5-19.1 4.3-1.5 8.6-2.3 13.1-2.8.7-.1.9-.3.9-1v-6.4c0-.6.2-.8.7-.7h8.4c.6 0 .8.2.8.8V63c0 .8.3.9.9 1 6.3.7 12.3 2.2 17.8 5.4 8 4.8 13.2 11.8 15.9 20.7.6 2.1 1.1 4.2 1.5 6.3.1.6 0 .9-.7 1-5.2.8-10.4 1.5-15.7 2.3-.6.1-.8-.1-.9-.7-.6-3.4-1.5-6.7-3-9.8-2.9-5.8-7.7-9.2-13.9-10.9-1.9-.5-1.9-.5-1.9 1.5v45c0 .8.3 1.1 1 1.3 5 1.3 10.1 2.4 14.8 4.3 8.3 3.4 15.1 8.5 19.3 16.6 3.2 6.1 4.4 12.7 4.2 19.6z"/><path class="st3" d="M135 122.5c0 .8-.1 1.1-1 .8-4.2-1.4-8.3-3.1-11.8-5.8-4.2-3.2-6.7-7.4-7.6-12.6-1-5.3-.5-10.4 2-15.1 3.5-6.5 9-10.3 16.1-11.9 2.2-.5 2.2-.5 2.2 1.8v20.8c.1 7.3.1 14.7.1 22zM166.8 161.3c.9 5.9.5 11.6-2.2 17-3.9 7.9-10.3 12.7-19.1 14.1-.9.1-.7-.4-.7-.8v-48.8c0-.9.2-1 1-.7 3.8 1.3 7.4 2.8 10.9 4.7 5.8 3.3 9.1 8.1 10.1 14.5z"/><path class="st1" d="M139.5 14.6c-68.9 0-124.9 56-124.8 124.9.1 69 55.9 124.8 124.8 124.8s124.8-55.9 124.8-124.8c0-69-55.8-124.8-124.8-124.9zm44.8 152c-.3 10.6-3.7 20-11.1 27.7-6.3 6.5-14 10.3-22.9 11.7-1.5.2-3.1.4-4.7.5-.7 0-.8.3-.8.9v14.8c0 1.2 0 1.2-1.2 1.2h-7.7c-.7 0-1-.2-.9-.9 0-4.8 0-9.7.1-14.5 0-1-.3-1.3-1.3-1.4-5.1-.7-10-1.8-14.8-3.5-9.9-3.6-16.3-10.9-20.5-20.2-2.3-5-3.3-10.3-3.8-15.7-.1-.7.1-1 .8-1.1 5-.9 10-1.8 14.9-2.8.9-.2 1 .1 1.2.9.8 5.3 1.9 10.5 4.5 15.2 4 7.1 9.8 11.9 18.1 13.3.8.1.9-.1.9-.8v-51c0-.8-.2-1.1-1-1.2-7.8-1.6-15.1-4.6-21.9-8.9-6.7-4.2-11.1-10.3-13.2-17.9-2.6-9.1-2.2-18.3 1.6-27 4-9.3 10.8-15.8 20.5-19.1 4.3-1.5 8.6-2.3 13.1-2.8.7-.1.9-.3.9-1v-6.4c0-.6.2-.8.7-.7h8.4c.6 0 .8.2.8.8V63c0 .8.3.9.9 1 6.3.7 12.3 2.2 17.8 5.4 8 4.8 13.2 11.8 15.9 20.7.6 2.1 1.1 4.2 1.5 6.3.1.6 0 .9-.7 1-5.2.8-10.4 1.5-15.7 2.3-.6.1-.8-.1-.9-.7-.6-3.4-1.5-6.7-3-9.8-2.9-5.8-7.7-9.2-13.9-10.9-1.9-.5-1.9-.5-1.9 1.5v45c0 .8.3 1.1 1 1.3 5 1.3 10.1 2.4 14.8 4.3 8.3 3.4 15.1 8.5 19.3 16.6 3.2 6.1 4.4 12.7 4.2 19.6z"/><path class="st2" d="M135 122.5c0 .8-.1 1.1-1 .8-4.2-1.4-8.3-3.1-11.8-5.8-4.2-3.2-6.7-7.4-7.6-12.6-1-5.3-.5-10.4 2-15.1 3.5-6.5 9-10.3 16.1-11.9 2.2-.5 2.2-.5 2.2 1.8v20.8c.1 7.3.1 14.7.1 22zM164.6 178.4c-3.9 7.9-10.3 12.7-19.1 14.1-.9.1-.7-.4-.7-.8v-48.8c0-.9.2-1 1-.7 3.8 1.3 7.4 2.8 10.9 4.7 5.7 3.2 9.1 8 10.1 14.4.9 5.9.5 11.7-2.2 17.1z"/><path class="st1" d="M164.6 178.4c-3.9 7.9-10.3 12.7-19.1 14.1-.9.1-.7-.4-.7-.8v-48.8c0-.9.2-1 1-.7 3.8 1.3 7.4 2.8 10.9 4.7 5.7 3.2 9.1 8 10.1 14.4.9 5.9.5 11.7-2.2 17.1zM135 122.5c0 .8-.1 1.1-1 .8-4.2-1.4-8.3-3.1-11.8-5.8-4.2-3.2-6.7-7.4-7.6-12.6-1-5.3-.5-10.4 2-15.1 3.5-6.5 9-10.3 16.1-11.9 2.2-.5 2.2-.5 2.2 1.8v20.8c.1 7.3.1 14.7.1 22z"/></svg>